# xmcd
# 
# Track frame offsets:
#     187
#     22217
#     41435
#     67390
#     91605
#     108567
#     135000
#     157740
#     181352
#     200262
#     231542
#     245275
#     256415
#     275400
#     289142
#     306335
# 
# Disc length: 4334
# 
# Revision: 2
# Processed by: cddbd v1.5.2PL0 Copyright (c) Steve Scherf et al.
# Submitted via: BonkEnc v1.0.8
# 
DISCID=e010ec10
DTITLE=Various Artist - MEGA HITS 80's 8
DYEAR=1994
DGENRE=Rock
TTITLE0=BOBBY BROWN - MY PREROGATIVE
TTITLE1=KIM WILDE - YOU KEEP ME HANGIN' ON
TTITLE2=NEW EDITION - COOL IT NOW
TTITLE3=JODY WATLEY - LOOKING FOR A NEW LOVE
TTITLE4=GLENN FREY - THE HEAT IS ON
TTITLE5=GLENN FREY - YOU BELONG THE CITY
TTITLE6=NIGHT RANGER - SISTER CHRISTIAN
TTITLE7=CHARLIE SEXTON - BEAT'S SO LONLEY
TTITLE8=DAN HARTMAN - I CAN DREAM ABOUT YOU
TTITLE9=FIRE INC. - TONIGHT IS WHAT IT MEANS TO BE YOUNG
TTITLE10=HAROLD FALTERMEYER - AXEL F
TTITLE11=JAN HAMMER - THE ORIGINAL MIAMI VICE THEME
TTITLE12=RUPERT HOLMES - HIM
TTITLE13=STEPHEN BISHOP - ON AND ON
TTITLE14=TIFFANY - I THINK WE'RE ALONE NOW
TTITLE15=DIANNA ROSS - IF WE HOLD ON TOGETHER
EXTD=YEAR: 1994
EXTT0=
EXTT1=
EXTT2=
EXTT3=
EXTT4=
EXTT5=
EXTT6=
EXTT7=
EXTT8=
EXTT9=
EXTT10=
EXTT11=
EXTT12=
EXTT13=
EXTT14=
EXTT15=
PLAYORDER=
